<?xml version="1.0" standalone="no"?>
<!DOCTYPE svg PUBLIC "-//W3C//DTD SVG 20010904//EN"
 "http://www.w3.org/TR/2001/REC-SVG-20010904/DTD/svg10.dtd">
<svg version="1.0" xmlns="http://www.w3.org/2000/svg"
 width="400.000000pt" height="400.000000pt" viewBox="0 0 400.000000 400.000000"
 preserveAspectRatio="xMidYMid meet">
<metadata>
Created by potrace 1.14, written by Peter Selinger 2001-2017
</metadata>
<g transform="translate(0.000000,400.000000) scale(0.100000,-0.100000)"
fill="#000000" stroke="none">
<path d="M1957 3591 c-29 -32 -76 -72 -81 -69 -3 2 -13 -7 -21 -20 -9 -12 -21
-19 -27 -16 -6 4 -9 3 -6 -2 3 -5 0 -15 -8 -22 -8 -7 -14 -9 -14 -5 0 4 -5 0
-11 -9 -5 -10 -16 -18 -24 -18 -8 0 -17 -5 -21 -12 -5 -7 -3 -8 6 -3 9 5 11 4
6 -3 -4 -7 -13 -12 -19 -12 -7 -1 -23 -14 -37 -30 -13 -17 -29 -30 -36 -30 -7
0 -14 -7 -18 -15 -3 -8 -13 -15 -21 -15 -9 0 -13 -4 -10 -10 3 -5 2 -10 -3
-10 -5 0 -24 -14 -41 -32 -17 -17 -31 -29 -31 -25 0 3 -18 -12 -41 -34 -23
-22 -45 -37 -52 -33 -7 4 -9 4 -5 -1 8 -8 -15 -35 -31 -35 -6 0 -15 -9 -21
-20 -6 -11 -15 -20 -21 -20 -6 0 -26 -15 -44 -32 -72 -70 -94 -88 -108 -88
-13 0 -15 27 -15 173 0 94 -3 180 -7 189 -4 9 -21 20 -38 24 -48 10 -277 10
-277 0 0 -5 -3 -7 -6 -3 -8 8 -33 -16 -27 -25 2 -5 0 -8 -4 -8 -5 0 -8 -152
-8 -337 l1 -337 -39 -37 c-60 -55 -76 -69 -84 -68 -3 0 -10 -6 -15 -15 -5 -9
-14 -13 -20 -10 -6 4 -8 3 -5 -3 4 -6 -6 -19 -21 -29 -15 -10 -40 -30 -55 -46
-16 -15 -33 -25 -39 -22 -6 4 -8 3 -5 -3 5 -9 -25 -43 -39 -43 -3 0 -19 -14
-35 -31 -16 -17 -29 -28 -29 -25 0 4 -14 -7 -30 -24 -17 -17 -30 -29 -30 -26
0 2 -18 -12 -39 -32 -22 -20 -53 -48 -70 -62 -17 -14 -41 -34 -53 -45 -13 -11
-38 -32 -56 -47 -19 -16 -30 -28 -27 -28 4 0 2 -7 -5 -15 -15 -18 -21 -85 -8
-85 5 0 7 -4 4 -8 -3 -5 6 -16 19 -26 14 -10 22 -24 18 -30 -3 -6 -3 -8 1 -5
4 4 23 1 44 -6 31 -11 41 -11 67 2 16 9 33 21 37 27 4 6 8 8 8 4 0 -6 33 22
96 83 16 16 33 29 38 29 4 0 18 12 32 28 14 15 22 20 18 12 -4 -8 10 3 31 25
20 22 40 40 44 40 7 1 38 28 107 93 25 23 50 40 55 36 5 -3 8 -2 7 3 -2 4 -1
8 2 9 3 0 21 16 41 35 54 51 101 91 139 119 18 14 45 37 58 53 14 15 29 27 34
27 5 0 24 16 43 36 19 20 35 33 35 30 0 -4 13 6 29 21 16 15 48 44 70 63 23
19 51 45 63 58 12 12 26 22 31 22 5 0 22 15 38 33 16 17 29 28 29 24 0 -4 14
6 30 23 17 17 30 28 30 25 0 -4 17 11 38 32 21 21 53 49 71 63 18 14 51 42 73
62 22 21 45 35 51 31 5 -3 8 -2 5 3 -3 5 0 15 8 22 8 7 14 10 14 7 0 -3 19 13
43 36 72 70 82 79 92 79 6 0 19 11 29 25 10 14 22 25 26 25 4 0 24 15 43 33
50 45 96 46 139 3 18 -17 28 -24 24 -16 -5 8 8 -2 28 -23 20 -21 36 -35 36
-30 0 4 11 -3 24 -17 13 -14 41 -38 61 -55 21 -16 51 -42 67 -57 16 -16 31
-28 33 -28 5 0 62 -50 107 -92 15 -14 28 -24 28 -20 0 4 12 -7 28 -24 15 -16
32 -31 37 -33 6 -2 9 -7 8 -12 -2 -5 1 -8 6 -6 5 1 18 -9 30 -22 12 -13 21
-21 21 -16 0 4 16 -10 36 -31 20 -22 33 -32 29 -24 -4 8 6 0 23 -17 17 -18 35
-33 39 -33 5 0 23 -16 42 -35 18 -19 37 -35 42 -35 6 0 7 -5 3 -12 -4 -6 -3
-8 4 -4 6 3 19 -5 30 -19 11 -13 22 -22 25 -19 3 3 10 -4 17 -15 6 -12 15 -21
21 -21 6 0 27 -16 46 -35 19 -19 39 -35 45 -35 5 0 6 -5 2 -12 -4 -6 -3 -8 4
-4 6 3 19 -5 30 -19 11 -13 22 -21 26 -18 3 3 6 -1 6 -11 0 -9 5 -14 10 -11 6
3 13 -1 16 -9 3 -9 12 -16 19 -16 8 0 17 -5 21 -12 5 -7 2 -9 -7 -4 -18 10 -1
-6 156 -139 72 -60 132 -112 135 -115 13 -14 201 -171 243 -203 35 -26 59 -37
84 -37 91 0 146 85 117 182 -3 10 -62 66 -132 125 -70 59 -159 136 -199 170
-39 34 -85 69 -102 78 -17 8 -31 20 -31 25 0 6 -5 10 -11 10 -6 0 -27 17 -47
38 -19 20 -32 30 -27 22 4 -8 -7 0 -24 19 -17 18 -31 31 -31 27 0 -4 -16 9
-35 30 -19 20 -35 34 -35 30 0 -4 -6 -1 -14 6 -8 7 -11 17 -8 22 3 5 0 6 -6 2
-6 -3 -15 2 -21 11 -6 10 -11 14 -11 9 0 -5 -13 4 -29 20 -48 48 -91 84 -100
84 -4 0 -23 18 -42 40 -19 22 -39 40 -45 40 -6 0 -30 18 -54 40 -24 22 -45 40
-47 40 -3 0 -20 16 -39 35 -19 20 -34 33 -34 30 0 -4 -45 34 -106 91 -18 17
-35 29 -38 27 -2 -3 -12 7 -22 21 -9 15 -19 25 -21 22 -8 -8 -31 18 -25 28 3
5 0 6 -6 2 -6 -3 -15 2 -21 11 -6 10 -11 14 -11 9 0 -6 -16 7 -35 28 -19 21
-35 35 -35 30 0 -4 -15 9 -34 29 -18 20 -38 37 -43 37 -5 0 -15 9 -23 20 -8
11 -19 20 -25 20 -6 0 -21 10 -33 23 -12 12 -39 37 -59 55 -21 18 -53 46 -70
62 -18 16 -33 27 -33 23 0 -3 -8 3 -17 14 -24 27 -72 57 -93 58 -10 1 -25 -6
-33 -14z"/>
<path d="M1957 2985 c-8 -8 -18 -11 -22 -7 -5 4 -5 2 -1 -5 4 -7 -2 -17 -14
-23 -11 -6 -38 -28 -61 -50 -23 -22 -46 -37 -51 -34 -4 3 -7 2 -6 -3 2 -4 1
-8 -2 -9 -3 0 -24 -18 -46 -40 -23 -21 -58 -52 -79 -69 -21 -16 -53 -45 -71
-63 -19 -18 -39 -30 -46 -26 -6 4 -8 3 -5 -3 4 -6 -5 -19 -19 -29 -14 -11 -40
-32 -58 -49 -17 -16 -48 -42 -67 -57 -19 -15 -47 -37 -61 -50 -13 -13 -44 -39
-68 -58 -24 -19 -58 -48 -76 -65 -30 -28 -78 -69 -114 -98 -8 -7 -18 -11 -22
-10 -5 2 -7 0 -5 -5 1 -4 -1 -7 -4 -7 -3 0 -23 -18 -43 -40 -21 -22 -35 -33
-30 -25 4 8 -8 -1 -27 -20 -48 -49 -109 -102 -109 -95 0 3 -16 -9 -35 -27 -75
-71 -95 -89 -100 -88 -4 1 -15 -8 -24 -19 -10 -12 -23 -21 -28 -21 -22 0 -123
-103 -131 -133 -4 -18 -8 -305 -8 -639 1 -569 2 -608 19 -625 17 -17 53 -18
567 -18 502 0 551 2 566 17 16 16 17 64 19 540 1 288 3 528 4 534 3 25 56 31
305 31 240 1 259 0 277 -18 18 -18 19 -42 19 -543 l0 -525 23 -18 c22 -17 54
-18 558 -18 294 1 544 5 556 9 13 4 25 17 28 29 3 12 4 299 3 637 -3 697 6
625 -89 706 -25 22 -70 60 -100 85 -30 26 -137 117 -237 203 -101 86 -188 156
-193 156 -4 0 -19 11 -33 25 -14 14 -28 25 -31 25 -3 0 -17 10 -30 23 -13 12
-42 38 -65 57 -23 19 -60 53 -83 75 -22 22 -37 33 -32 25 4 -8 -6 0 -24 18
-17 18 -31 30 -31 25 0 -4 -18 10 -41 32 -22 22 -57 56 -77 75 -20 19 -32 28
-28 20 5 -8 -2 -5 -15 7 -13 13 -36 33 -51 46 -15 13 -24 28 -20 32 4 5 2 5
-4 2 -5 -3 -29 11 -51 31 -23 20 -55 48 -73 62 -17 14 -49 42 -71 64 -21 21
-39 35 -39 31 0 -3 -7 1 -16 9 -19 20 -58 21 -77 1z m151 -476 c6 -1 12 -6 12
-11 0 -5 5 -6 10 -3 6 3 10 1 10 -5 0 -6 5 -8 10 -5 6 3 10 1 10 -4 0 -6 5
-11 11 -11 6 0 31 -20 56 -45 24 -25 41 -45 38 -45 -4 0 1 -7 9 -16 9 -8 14
-20 11 -25 -4 -5 -1 -9 5 -9 6 0 9 -4 5 -9 -3 -5 -2 -12 3 -15 7 -4 10 -22 15
-81 5 -74 -39 -181 -99 -241 -60 -61 -123 -86 -214 -87 -116 -2 -202 46 -268
146 -15 23 -31 45 -37 49 -5 4 -6 8 -1 8 5 0 4 6 -1 13 -10 11 -10 154 -1 187
7 26 40 85 52 92 6 4 11 11 11 16 0 16 82 82 108 86 7 1 21 7 32 13 17 10 162
11 213 2z"/>
</g>
</svg>
